<svg width="19" height="19" viewBox="0 0 19 19" fill="none" xmlns="http://www.w3.org/2000/svg">
<g clip-path="url(#clip0_2_46)">
<path d="M17.8499 12.9868L9.25957 17.3169L9.25942 8.65662L17.8499 12.9868Z" fill="#42D6FF" stroke="white" stroke-width="0.5"/>
<path d="M17.8499 4.65662V13.3167L9.25942 8.98668L17.8499 4.65662Z" fill="#42D6FF" stroke="white" stroke-width="0.5"/>
<path d="M17.8498 4.98677L9.25957 9.31683L9.25942 0.656616L17.8498 4.98677Z" fill="#4283EA" stroke="white" stroke-width="0.5"/>
<path d="M9.16847 0.44101V9.10124L0.578033 4.77109L9.16847 0.44101Z" fill="#344CE2" stroke="white" stroke-width="0.5"/>
<path d="M9.53731 8.98671L0.946968 13.3169L0.946921 4.65662L9.53731 8.98671Z" fill="#42D6FF"/>
<path d="M9.53731 8.98669L9.53741 17.6469L0.946968 13.3169L9.53731 8.98669Z" fill="#42D6FF"/>
<path d="M9.53731 8.98671L0.946968 13.3169M9.53731 8.98671L0.946921 4.65662L0.946968 13.3169M9.53731 8.98671L9.5374 17.6469L0.946968 13.3169" stroke="white" stroke-width="0.5"/>
</g>
<defs>
<clipPath id="clip0_2_46">
<rect width="19" height="19" fill="white"/>
</clipPath>
</defs>
</svg>
